<svg xmlns="http://www.w3.org/2000/svg" viewBox="0 0 36 36" fill="none"><path fill="#2A1C42" d="M20.74 28.822C28.108 28.565 34 22.662 34 15.415 34 8.006 27.84 2 20.24 2 12.811 2 6.757 7.738 6.487 14.915c-.01.276.215.5.49.5H19.74a.5.5 0 0 1 .5.5v12.416c0 .276.225.5.501.491Z"/><path fill="#2A1C42" d="M17.922 17.187H5.875a.5.5 0 0 0-.352.855l2.142 2.126a.5.5 0 0 1 .023.686L2.294 26.96a.5.5 0 0 0 0 .663l5.332 5.989a.5.5 0 0 0 .72.027l6.287-6.054a.5.5 0 0 1 .696.002l2.244 2.188a.5.5 0 0 0 .849-.358v-11.73a.5.5 0 0 0-.5-.5Z"/></svg>